<svg xmlns="http://www.w3.org/2000/svg" version="1.0" width="256.000000pt" height="256.000000pt" viewBox="0 0 256.000000 256.000000" preserveAspectRatio="xMidYMid meet">

    <g transform="translate(0.000000,256.000000) scale(0.100000,-0.100000)" fill="#5b4ce2" stroke="none">
        <path d="M1201 2430 c-187 -50 -331 -180 -426 -383 -43 -90 -62 -165 -76 -288 -17 -155 21 -332 122 -568 78 -181 243 -482 351 -639 17 -24 28 -44 26 -46 -1 -1 -41 -8 -88 -14 -96 -13 -179 -49 -205 -88 -24 -37 -23 -108 2 -142 55 -75 176 -105 428 -106 322 -1 455 53 455 183 0 78 -78 131 -227 153 -43 6 -80 13 -81 14 -2 1 25 49 60 106 232 371 376 681 422 910 78 384 -125 787 -454 898 -93 32 -214 36 -309 10z m258 -85 c96 -25 162 -65 246 -150 89 -88 148 -192 181 -315 27 -100 25 -291 -4 -398 -63 -232 -224 -553 -449 -897 -48 -74 -91 -135 -94 -135 -9 0 -133 189 -226 344 -160 267 -270 508 -318 691 -112 431 158 872 535 874 41 1 99 -6 129 -14z m-178 -1957 c46 -67 69 -68 109 -3 26 41 43 43 171 19 227 -43 205 -120 -44 -154 -297 -39 -655 37 -534 114 36 24 157 51 239 55 31 1 40 -4 59 -31z"/>
        <path d="M1160 1882 c-171 -67 -170 -66 -170 -96 0 -30 10 -38 88 -67 l62 -24 0 -97 c0 -108 6 -120 82 -159 81 -42 164 -35 251 21 l47 30 0 104 c0 105 4 116 41 116 15 0 10 -72 -7 -91 -14 -15 -14 -21 -2 -46 11 -23 20 -28 48 -28 26 0 37 6 47 24 8 16 9 31 2 42 -15 29 -11 125 6 139 18 15 20 54 3 67 -21 16 -312 123 -334 122 -10 0 -84 -26 -164 -57z m340 -93 c0 -3 -39 -20 -87 -38 l-87 -31 -83 31 c-46 18 -83 35 -83 38 0 4 37 20 83 37 l82 30 87 -30 c49 -17 88 -34 88 -37z m-214 -147 c40 -15 45 -14 98 6 l56 21 0 -68 0 -69 -40 -16 c-53 -21 -95 -20 -147 4 l-43 19 0 67 c0 59 2 65 18 59 9 -4 36 -14 58 -23z"/>
    </g>
</svg>
